<svg viewBox="0 0 100.00000762939453 75.000244140625" version="1.1" xmlns="http://www.w3.org/2000/svg" xmlns:xlink="http://www.w3.org/1999/xlink" role="none" style=""><g transform="scale(1.2716659928598795)"><g><g><path clip-rule="evenodd" d="M81.602,44.102h-66.84c-3.256,0-5.898,2.64-5.898,5.898    s2.642,5.898,5.898,5.898h66.84c3.256,0,5.898-2.64,5.898-5.898S84.858,44.102,81.602,44.102z M81.602,67.693h-66.84    c-3.256,0-5.898,2.64-5.898,5.898c0,3.258,2.642,5.898,5.898,5.898h66.84c3.256,0,5.898-2.64,5.898-5.898    C87.5,70.333,84.858,67.693,81.602,67.693z M14.763,32.307h66.84c3.256,0,5.898-2.64,5.898-5.898c0-3.258-2.642-5.898-5.898-5.898    h-66.84c-3.256,0-5.898,2.64-5.898,5.898C8.865,29.667,11.507,32.307,14.763,32.307z" transform="translate(-8.864001274108887,-20.511001586914062)"></path></g></g></g></svg>